<?xml version="1.0" encoding="utf-8"?>
<!-- Generator: Adobe Illustrator 24.0.1, SVG Export Plug-In . SVG Version: 6.00 Build 0)  -->
<svg version="1.1" id="Layer_1" xmlns="http://www.w3.org/2000/svg" xmlns:xlink="http://www.w3.org/1999/xlink" x="0px" y="0px"
	 viewBox="0 0 80.29 32" style="enable-background:new 0 0 80.29 32;" xml:space="preserve">
<style type="text/css">
	.st0{fill-rule:evenodd;clip-rule:evenodd;fill:#EE2624;}
	.st1{fill-rule:evenodd;clip-rule:evenodd;}
</style>
<path class="st0" d="M10.28,3.66l0.01-2.97c0-0.29,0.17-0.53,0.43-0.64C10.98-0.05,11.27,0,11.47,0.2l9.94,9.96
	c0.26,0.26,0.39,0.57,0.39,0.93v20.75c0,0.09-0.07,0.16-0.16,0.16h-0.93c-0.09,0-0.16-0.07-0.16-0.16c0-6.93,0-13.86,0-20.79
	L11.51,2v1.66C11.11,3.53,10.68,3.53,10.28,3.66z"/>
<path class="st0" d="M11.52,18.5v2.33l0.01,0.01l4.74,4.74c0.26,0.26,0.39,0.57,0.39,0.93c0,1.77,0,3.55,0,5.32
	c0,0.09-0.07,0.16-0.16,0.16l-0.92,0c-0.09,0-0.16-0.07-0.16-0.16c0-1.79,0-3.57,0-5.36l-3.9-3.91c0,3.09,0,6.17,0,9.26
	c0,0.09-0.07,0.16-0.16,0.16l-0.92,0c-0.09,0-0.16-0.07-0.16-0.16c0-3.09,0-6.17,0-9.26l-3.9,3.91c0,1.78,0,3.57,0,5.35
	c0,0.09-0.07,0.16-0.16,0.16l-0.92,0c-0.09,0-0.16-0.07-0.16-0.16c0-1.77,0-3.54,0-5.32c0-0.36,0.13-0.68,0.39-0.93l4.59-4.59
	c0.11-0.11,0.16-0.24,0.16-0.4v-2.1C10.68,18.63,11.12,18.63,11.52,18.5z"/>
<path class="st0" d="M7.1,15.48l-5.86,5.86c0,3.5,0,6.99,0,10.49c0,0.09-0.07,0.16-0.16,0.16l-0.92,0C0.07,31.99,0,31.92,0,31.83
	V21.37c0-0.36,0.13-0.68,0.39-0.93l6.13-6.13C6.68,14.72,6.88,15.11,7.1,15.48z"/>
<path class="st0" d="M6.64,11.08c0-2.74,1.33-5.08,3.53-6.55c0.44-0.29,0.98-0.3,1.42-0.01c2.23,1.42,3.56,3.87,3.56,6.56
	c0,2.78-1.33,5.05-3.52,6.55c-0.45,0.31-1.01,0.31-1.46,0C7.96,16.12,6.64,13.83,6.64,11.08L6.64,11.08z M13.9,10.58l-2.38,2.38
	v3.24c1.53-1.27,2.4-3.13,2.4-5.12C13.92,10.91,13.91,10.75,13.9,10.58L13.9,10.58z M11.52,11.21l2.11-2.11
	c-0.38-1.22-1.1-2.32-2.11-3.15L11.52,11.21L11.52,11.21z M7.9,10.58c-0.01,0.17-0.02,0.33-0.02,0.5c0,1.93,0.92,3.89,2.4,5.12v-2.5
	v-0.75L7.9,10.58L7.9,10.58z M10.28,11.21v-0.89v-0.01V9.71V5.96C9.28,6.79,8.55,7.89,8.18,9.1L10.28,11.21z"/>
<path class="st1" d="M77.09,11.91c-1.91,0-3.18,1.4-3.18,3.21c0,1.83,1.25,3.2,3.18,3.2c1.94,0,3.2-1.38,3.2-3.2
	C80.29,13.31,78.99,11.91,77.09,11.91L77.09,11.91z M77.09,13.1c1.13,0,1.9,0.94,1.9,2.03c0,1.1-0.71,2-1.9,2
	c-1.18,0-1.89-0.9-1.89-2C75.2,14.03,75.91,13.1,77.09,13.1z"/>
<path class="st1" d="M67.68,15.45c0.17-2.41-1.16-3.58-3.11-3.58c-1.93,0-3.24,1.34-3.24,3.21c0,1.98,1.3,3.26,3.33,3.26
	c0.9,0,1.89-0.31,2.54-0.93c0.03-0.03,0.05-0.07,0.05-0.11c0-0.04-0.02-0.08-0.05-0.11l-0.61-0.6c-0.06-0.06-0.15-0.06-0.21,0
	c-0.4,0.36-1.11,0.56-1.68,0.56c-1.13,0-1.9-0.61-2.01-1.55h4.86C67.6,15.6,67.67,15.53,67.68,15.45L67.68,15.45z M62.69,14.51
	c0.2-0.98,0.98-1.49,1.91-1.49c1.04,0,1.75,0.51,1.83,1.49H62.69z"/>
<path class="st1" d="M52.05,12.59c-0.65-0.53-1.36-0.72-2.25-0.72c-1.15,0-2.56,0.51-2.56,1.88c0.01,1.36,1.35,1.74,2.51,1.85
	c0.91,0.09,1.44,0.3,1.43,0.85c-0.01,0.58-0.7,0.8-1.31,0.8c-0.67-0.01-1.47-0.24-2.04-0.78c-0.03-0.03-0.08-0.05-0.12-0.04
	c-0.05,0-0.09,0.03-0.11,0.06l-0.49,0.66c-0.05,0.06-0.04,0.15,0.01,0.2c0.8,0.83,1.76,1.04,2.72,1.04c1.6,0,2.61-0.8,2.63-1.95
	c0.01-1.59-1.48-1.84-2.61-1.94c-0.79-0.08-1.33-0.28-1.34-0.79c0-0.49,0.53-0.75,1.31-0.74c0.56,0,1.05,0.11,1.51,0.47
	c0.07,0.05,0.16,0.04,0.22-0.02l0.52-0.61c0.03-0.03,0.04-0.07,0.04-0.12C52.11,12.65,52.09,12.62,52.05,12.59z"/>
<path class="st1" d="M42.95,11.91c-1.91,0-3.18,1.4-3.18,3.21c0,1.83,1.25,3.2,3.18,3.2c1.94,0,3.2-1.38,3.2-3.2
	C46.15,13.31,44.85,11.91,42.95,11.91L42.95,11.91z M42.95,13.1c1.13,0,1.9,0.94,1.9,2.03c0,1.1-0.71,2-1.9,2
	c-1.18,0-1.89-0.9-1.89-2C41.06,14.03,41.77,13.1,42.95,13.1z"/>
<path class="st1" d="M34.99,18.2h0.97c0.09,0,0.16-0.07,0.16-0.16v-3.18c0-1.49,1.52-2.13,2.61-1.42c0.04,0.03,0.08,0.03,0.13,0.02
	c0.04-0.01,0.08-0.04,0.1-0.08l0.47-0.89c0.04-0.07,0.02-0.16-0.05-0.2c-1.52-1.01-4.57-0.38-4.57,2.57l0.03,3.18
	C34.84,18.13,34.91,18.2,34.99,18.2z"/>
<path class="st1" d="M69.16,18.2h0.97c0.09,0,0.16-0.07,0.16-0.16v-3.18c0-1.49,1.52-2.13,2.61-1.42c0.04,0.03,0.08,0.03,0.13,0.02
	c0.04-0.01,0.08-0.04,0.1-0.08l0.47-0.89c0.04-0.07,0.02-0.16-0.05-0.2c-1.52-1.01-4.57-0.38-4.57,2.57L69,18.04
	C69,18.13,69.07,18.2,69.16,18.2z"/>
<path class="st1" d="M54.88,21.06h-0.97c-0.09,0-0.16-0.07-0.16-0.16v-5.77c-0.02-1.86,1.31-3.23,3.18-3.23c1.9,0,3.2,1.4,3.2,3.21
	c0,1.83-1.26,3.2-3.2,3.2c-0.74,0-1.38-0.2-1.89-0.56v3.14C55.04,20.99,54.97,21.06,54.88,21.06L54.88,21.06z M56.93,13.1
	c-1.18,0-1.89,0.94-1.89,2.03c0,1.1,0.71,2,1.89,2c1.19,0,1.9-0.9,1.9-2C58.83,14.03,58.05,13.1,56.93,13.1z"/>
<path class="st1" d="M28.41,21.02h-0.97c-0.09,0-0.16-0.07-0.16-0.16v-5.77c-0.02-1.86,1.31-3.23,3.18-3.23c1.9,0,3.2,1.4,3.2,3.21
	c0,1.83-1.26,3.2-3.2,3.2c-0.74,0-1.38-0.2-1.89-0.56v3.14C28.57,20.95,28.5,21.02,28.41,21.02L28.41,21.02z M30.46,13.05
	c-1.17,0-1.89,0.94-1.89,2.03c0,1.1,0.71,2,1.89,2c1.19,0,1.9-0.9,1.9-2C32.36,13.99,31.58,13.05,30.46,13.05z"/>
<path class="st1" d="M77.17,23.11l-1.85,4.13l-1.64-4.12c-0.02-0.06-0.08-0.1-0.15-0.1h-1.39l2.46,6.08l-1.22,2.83h1.32
	c0.06,0,0.12-0.04,0.14-0.1l3.79-8.81h-1.34C77.25,23.02,77.2,23.05,77.17,23.11z"/>
<path class="st1" d="M68.17,21.51v1.51h-1.03c-0.09,0-0.16,0.07-0.16,0.16v0.8c0,0.09,0.07,0.16,0.16,0.16h1.03v2.94
	c0,1.45,0.76,2.21,2.1,2.18c0.39,0,0.73-0.07,1.1-0.22c0.08-0.03,0.12-0.12,0.09-0.2l-0.33-0.96c-0.25,0.12-0.54,0.21-0.79,0.21
	c-0.6,0-0.89-0.36-0.89-1.01v-2.94h2.42l-0.41-1.01c-0.02-0.06-0.08-0.1-0.15-0.1h-1.85V21.4c0-0.05-0.02-0.09-0.05-0.12
	c-0.03-0.03-0.08-0.04-0.12-0.04l-0.99,0.1C68.23,21.36,68.17,21.43,68.17,21.51z"/>
<path class="st1" d="M42.95,22.77c-1.91,0-3.18,1.4-3.18,3.21c0,1.83,1.25,3.2,3.18,3.2c1.94,0,3.2-1.38,3.2-3.2
	C46.15,24.17,44.85,22.77,42.95,22.77L42.95,22.77z M42.95,23.96c1.13,0,1.9,0.94,1.9,2.03c0,1.1-0.71,2-1.9,2
	c-1.18,0-1.89-0.9-1.89-2C41.06,24.89,41.77,23.96,42.95,23.96z"/>
<path class="st1" d="M34.99,29.06h0.97c0.09,0,0.16-0.07,0.16-0.16v-3.18c0-1.49,1.52-2.13,2.61-1.42c0.04,0.03,0.08,0.03,0.13,0.02
	c0.04-0.01,0.08-0.04,0.1-0.08l0.47-0.89c0.04-0.07,0.02-0.16-0.05-0.2c-1.52-1.01-4.57-0.38-4.57,2.57l0.03,3.18
	C34.84,28.99,34.91,29.06,34.99,29.06z"/>
<path class="st1" d="M48.15,31.92h-0.97c-0.09,0-0.16-0.07-0.16-0.16V26c-0.02-1.86,1.31-3.23,3.18-3.23c1.9,0,3.2,1.4,3.2,3.21
	c0,1.83-1.26,3.2-3.2,3.2c-0.74,0-1.38-0.2-1.89-0.56v3.14C48.31,31.85,48.24,31.92,48.15,31.92L48.15,31.92z M50.2,23.96
	c-1.17,0-1.89,0.94-1.89,2.03c0,1.1,0.71,2,1.89,2c1.19,0,1.9-0.9,1.9-2C52.1,24.89,51.32,23.96,50.2,23.96z"/>
<path class="st1" d="M60.63,26.35c0.17-2.41-1.16-3.58-3.11-3.58c-1.93,0-3.24,1.34-3.24,3.21c0,1.98,1.3,3.26,3.33,3.26
	c0.9,0,1.89-0.31,2.54-0.93c0.03-0.03,0.05-0.07,0.05-0.11c0-0.04-0.02-0.08-0.05-0.11l-0.61-0.6c-0.06-0.06-0.15-0.06-0.21,0
	c-0.4,0.36-1.11,0.56-1.68,0.56c-1.13,0-1.9-0.61-2.01-1.55h4.86C60.55,26.5,60.62,26.43,60.63,26.35L60.63,26.35z M55.64,25.41
	c0.2-0.98,0.98-1.49,1.91-1.49c1.04,0,1.75,0.51,1.83,1.49H55.64z"/>
<path class="st1" d="M61.54,29.06h1.29v-3.34c0-1.49,1.52-2.13,2.61-1.42c0.04,0.03,0.08,0.03,0.13,0.02
	c0.04-0.01,0.08-0.04,0.1-0.08l0.47-0.89c0.04-0.07,0.02-0.16-0.05-0.2c-1.52-1.01-4.57-0.38-4.57,2.57L61.54,29.06z"/>
<path class="st1" d="M28.41,31.88h-0.97c-0.09,0-0.16-0.07-0.16-0.16v-5.77l0-0.01c0-1.81,1.26-3.21,3.18-3.21
	c1.9,0,3.2,1.4,3.2,3.21c0,1.83-1.26,3.2-3.2,3.2c-0.74,0-1.38-0.2-1.89-0.56v3.14C28.57,31.81,28.5,31.88,28.41,31.88L28.41,31.88z
	 M30.46,23.91c-1.17,0-1.89,0.94-1.89,2.03c0,1.1,0.71,2,1.89,2c1.19,0,1.9-0.9,1.9-2C32.36,24.85,31.58,23.91,30.46,23.91z"/>
</svg>
